<?xml version="1.0" standalone="no"?>
<!DOCTYPE svg PUBLIC "-//W3C//DTD SVG 20010904//EN"
 "http://www.w3.org/TR/2001/REC-SVG-20010904/DTD/svg10.dtd">
<svg version="1.0" xmlns="http://www.w3.org/2000/svg"
 width="700.000000pt" height="700.000000pt" viewBox="0 0 700.000000 700.000000"
 preserveAspectRatio="xMidYMid meet">
<metadata>
Created by potrace 1.11, written by Peter Selinger 2001-2013
</metadata>
<g transform="translate(0.000000,700.000000) scale(0.100000,-0.100000)"
fill="#000000" stroke="none">
<path d="M2298 5825 c-2 -1 -36 -5 -76 -9 -205 -17 -445 -114 -607 -246 -69
-56 -186 -183 -234 -253 -81 -120 -149 -276 -177 -407 -4 -19 -8 -37 -9 -40
-1 -3 -5 -36 -10 -74 -33 -281 34 -554 194 -793 50 -74 246 -275 1265 -1294
663 -664 1227 -1225 1253 -1249 234 -209 564 -310 898 -276 38 4 73 10 76 12
4 2 24 6 45 10 86 13 276 92 363 150 24 16 55 36 68 46 52 34 152 129 207 197
141 172 231 380 261 601 6 52 7 228 0 280 -25 191 -106 397 -214 545 -28 39
-335 355 -684 705 -681 684 -680 684 -707 814 -33 161 11 311 124 426 158 161
403 185 588 59 32 -21 61 -39 65 -39 5 0 117 110 251 244 l242 243 -37 34
c-175 161 -413 269 -648 295 -295 33 -576 -39 -815 -207 -224 -158 -406 -431
-459 -691 -6 -29 -14 -64 -17 -78 -10 -49 -13 -266 -3 -330 27 -194 97 -370
210 -530 35 -50 254 -277 667 -690 338 -338 629 -633 647 -655 124 -153 133
-379 22 -544 -154 -227 -479 -276 -681 -101 -16 14 -561 557 -1212 1207 -862
862 -1190 1196 -1212 1235 -110 192 -76 424 82 572 174 162 445 169 620 16
l32 -29 248 248 249 249 -43 38 c-191 173 -438 283 -675 300 -44 3 -97 7 -117
9 -20 1 -38 2 -40 0z"/>
<path d="M1500 3141 c-8 -9 -33 -39 -55 -66 -22 -28 -42 -52 -45 -55 -15 -13
-101 -172 -123 -225 -41 -101 -51 -135 -73 -260 -14 -78 -20 -271 -10 -324 3
-14 8 -44 11 -66 30 -213 155 -454 321 -619 105 -104 198 -170 326 -231 178
-84 334 -116 543 -110 202 5 380 57 553 160 77 46 222 159 222 173 0 5 -430
440 -485 491 -2 2 -18 -9 -36 -23 -75 -64 -195 -107 -294 -107 -117 1 -221 39
-315 116 -175 145 -203 437 -59 627 l40 53 -138 134 c-246 238 -338 326 -353
337 -11 8 -19 7 -30 -5z"/>
</g>
</svg>
