<?xml version="1.0" encoding="utf-8"?>
<!-- Generator: Adobe Illustrator 23.0.1, SVG Export Plug-In . SVG Version: 6.00 Build 0)  -->
<svg version="1.1" xmlns="http://www.w3.org/2000/svg" xmlns:xlink="http://www.w3.org/1999/xlink" x="0px" y="0px"
	 viewBox="0 0 500 500" style="enable-background:new 0 0 500 500;" xml:space="preserve">
<style type="text/css">
	.st0{display:none;}
	.st1{display:inline;fill:#E44D26;}
	.st2{display:inline;fill:#FFFFFF;}
</style>
<g id="html">
	<g id="back">
		<polygon points="69.6,450 29.6,0 470.4,0 430.2,450 249.8,500 		"/>
	</g>
	<g id="fill">
		<polygon points="388,92 383.2,147.1 172,147.1 176.9,203.6 378.1,203.6 363,373.2 249.8,404.5 136.7,373.2 128.9,286.5 
			184.4,286.5 188.3,330.5 249.8,347.2 311.4,330.5 317.8,258.9 126.5,258.9 111.6,92 		"/>
	</g>
	<path id="inner_border" d="M388,92H111.6l14.9,166.9h191.3l-6.5,71.6l-61.6,16.7l-61.5-16.7l-3.9-43.9h-55.5l7.8,86.6l113,31.4
		L363,373.2l15.1-169.5H176.9l-5-56.5h211.2L388,92z M369.4,132.1H155.6l1.4,16.3l5,56.5l1.2,13.7h198.5L349,361.5L249.8,389
		l-99-27.5l-5.4-59.9h25.3l2.7,30.3l0.9,10.4l10.1,2.7l61.5,16.7l3.9,1.1l3.9-1.1l61.6-16.7l10.1-2.7l0.9-10.4l6.5-71.6l1.5-16.3
		h-194L128,107h243.7L369.4,132.1z"/>
	<path id="outer_border" d="M29.6,0l40.1,450l180.1,50l180.5-50L470.4,0H29.6z M416.2,438.3l-166.5,46.1L83.7,438.3L46,15H454
		L416.2,438.3z"/>
</g>
</svg>
